<svg id="Layer_1" data-name="Layer 1" xmlns="http://www.w3.org/2000/svg" viewBox="0 0 100 24"><defs><style>.cls-1{fill:#231f20;fill-rule:evenodd}</style></defs><path class="cls-1" d="M69.07 11.72a4.3 4.3 0 00-2.91-2.49c-3.44-.91-7.8-.55-10.18 2.31-1.38 1.75-2.19 4.4-1.16 6.62A4.35 4.35 0 0058 20.64c2.89.38 6.61.54 8.94-1.57a7 7 0 002.11-7.35zM62 17a1.36 1.36 0 01-1.2 0c-.69-.38-.46-1.22-.38-1.79.33-1 .69-2.52 2-2.72a1.1 1.1 0 011.15.64A4.13 4.13 0 0162 17zM30.64 3.12l-2.44 7-1.84-7h-4.91l-6.03 17.09h5.74l2.28-6.51 1.7 6.51h5.2l6.03-17.09h-5.73zM40.14 8.22a3.35 3.35 0 002.64-1.46 2.43 2.43 0 00-.23-2.44 3.63 3.63 0 00-3-.84A2.92 2.92 0 0037 5.24a2.39 2.39 0 00.32 2.07 3.3 3.3 0 002.78.91zM35.97 9.37l-3.84 10.86h5.44l3.84-10.86h-5.44z"/><path class="cls-1" d="M57.02 9.35H50.7l-3.16 3.67 3.45-9.9h-5.54l-6.02 17.09h5.54l1.55-4.29.88 4.29h5.78L52.21 15l4.81-5.65zM81.9 9.22A7.21 7.21 0 0077 11l.63-1.65h-5.7l-3.84 10.88h5.74L75.68 15a1.54 1.54 0 011.6-1.2c.83 0 1 .82.78 1.49l-1.75 4.93h5.54l2.48-7c.68-1.93 0-4-2.43-4z"/><path fill="none" stroke="#000" stroke-miterlimit="10" opacity=".9" d="M0 0h100v24H0z"/></svg>