<svg id="Layer_1" data-name="Layer 1" xmlns="http://www.w3.org/2000/svg" viewBox="0 0 100 24"><defs><style>.cls-1{fill:#2c4386}</style></defs><g id="layer1"><g id="g24516"><path id="path23367" class="cls-1" d="M6.06 18.08V4.59h5.66c1.91 0 3.75.12 5 1.83a4.65 4.65 0 01.86 2.87 4.75 4.75 0 01-1.38 3.54A5.26 5.26 0 0112.53 14h-2.47v4.08zm5.54-7.21a2.71 2.71 0 001.89-.54 1.24 1.24 0 00.36-.9 1.44 1.44 0 00-.34-.9A2.94 2.94 0 0011.22 8h-1.11v2.9h1.49"/><path id="path23369" class="cls-1" d="M24.09 18.09l-.15-.89a4.69 4.69 0 01-3.14 1.18 4.07 4.07 0 01-2.42-.76 3.18 3.18 0 01-1-2.41 2.4 2.4 0 01.58-1.48 4 4 0 012.6-1.44l1.81-.22a4.39 4.39 0 01.67-.15 1.77 1.77 0 00.49-.18 1.27 1.27 0 00.27-.76c0-.39-.49-.7-1.26-.7a1.28 1.28 0 00-1.17.5 1 1 0 00-.14.55H17.8a4.06 4.06 0 01.87-2.06c.7-.78 1.81-1.28 4-1.28a5.73 5.73 0 013.31.65 2.67 2.67 0 011 1.22 6.14 6.14 0 01.27 2.62v2.69a7.07 7.07 0 00.41 2.94zm-.36-4.33l-1.51.5-.38.11a.86.86 0 00-.77.89.89.89 0 00.94.92 3.68 3.68 0 00.8-.12c.68-.19.73-.64.92-.83v-1.47"/><path id="path23371" class="cls-1" d="M34.4 18.1v-4.78c0 .57.15-1.86-.36-2.1a1.78 1.78 0 00-.88-.24 1.23 1.23 0 00-1.11.61 4.54 4.54 0 00-.24 1.93v4.59h-3.68V8.22h3.48l.05 1.14A3.26 3.26 0 0134.74 8a2.85 2.85 0 013.1 2.05 6 6 0 01.16 1.56v6.49h-3.6"/><path id="path23373" class="cls-1" d="M54.85 11.07a1.18 1.18 0 00-1.28-1 1.72 1.72 0 00-.87.21.74.74 0 00-.22.57.6.6 0 00.29.43 2.77 2.77 0 00.84.21l1.45.38A5.18 5.18 0 0157.68 13a2.34 2.34 0 01.6 1 2.58 2.58 0 01.08 1.08 2.92 2.92 0 01-.88 2.17 5.33 5.33 0 01-3.84 1.13 6.47 6.47 0 01-3.37-.81 3.34 3.34 0 01-1.5-2.67h3.51a1.1 1.1 0 00.36.84 1.38 1.38 0 001.09.35c.75 0 1.17-.36 1.19-.69a.65.65 0 00-.08-.44c-.18-.28-.64-.4-1.3-.57 0 0-2-.44-2.2-.51-.46-.22-2.32-.63-2.32-2.7A2.73 2.73 0 0150 9a5.1 5.1 0 013.49-1 6.29 6.29 0 013.44.87 2.87 2.87 0 01.87.9 3.38 3.38 0 01.39 1.32h-3.34"/><path id="path23381" class="cls-1" d="M67.52 17a5.28 5.28 0 01-3.86 1.4 4.76 4.76 0 01-3.75-1.59 5.52 5.52 0 01-1.21-3.72 5.29 5.29 0 01.33-2A4.75 4.75 0 0163.85 8a5 5 0 013.58 1.34 5.21 5.21 0 011.41 3.9A5.49 5.49 0 0167.52 17zm-2.73-6a1.62 1.62 0 00-1-.36A1.39 1.39 0 0063 11a2.44 2.44 0 00-.76 2.13c0 1 .22 2.58 1.58 2.58a1.29 1.29 0 001-.38 3.07 3.07 0 00.65-2.15 3.55 3.55 0 00-.68-2.18"/><path id="path23383" class="cls-1" d="M80 8.18h3.61v9.94H80zm0-3.68h3.61v2.58H80z"/><path id="path23385" class="cls-1" d="M90.57 12c-.27-1.19-.85-1.25-1.5-1.25a1.07 1.07 0 00-.86.33c-.46.39-.62.88-.62 2.09 0 .09 0 1.71.84 2.32a1 1 0 00.68.18 1.57 1.57 0 00.68-.12 1.37 1.37 0 00.8-1.31h3.5a6.07 6.07 0 01-.52 1.67 4.74 4.74 0 01-4.43 2.46 7.41 7.41 0 01-1.55-.17 4.58 4.58 0 01-3.2-2.76 5.83 5.83 0 01-.39-2.21 5.75 5.75 0 01.65-2.76 4.46 4.46 0 01.78-1.08 5.55 5.55 0 013.78-1.34 5.12 5.12 0 013.55 1.21 4.48 4.48 0 01.78 1.23A5.64 5.64 0 0194 12h-3.43"/><path id="path23387" class="cls-1" d="M48.43 15.2v-2.68a7.25 7.25 0 00-.36-2.77 2.23 2.23 0 00-.9-1.13A6.21 6.21 0 0043.72 8c-2.16 0-3.27.57-4 1.36a3.91 3.91 0 00-.83 2.07h3.42a1.21 1.21 0 01.14-.56 1.26 1.26 0 011.14-.56c.77 0 1.26.39 1.26.77 0 .21 0 .56-.17.67a2.48 2.48 0 01-.61.27l-.67.15-1.79.23a3.9 3.9 0 00-2.6 1.4 2.32 2.32 0 00-.51 1.55 3.06 3.06 0 00.93 2.37 3.81 3.81 0 002.42.7A4.61 4.61 0 0045 17.23l.16.94h3.7a6.65 6.65 0 01-.43-2.97zm-4.52.92a2.63 2.63 0 01-.75.05 1 1 0 01-.94-.92.85.85 0 01.77-.89l.39-.1c.5-.18 1-.32 1.5-.49v1.26c-.15.28-.32.9-1 1.09"/><path id="path23389" class="cls-1" d="M75.64 18.08v-4.8c0 .56.18-1.84-.34-2.08a1.89 1.89 0 00-.87-.24 1.19 1.19 0 00-1.1.62 3.5 3.5 0 00-.29 1.8v4.72h-3.63V8.2h3.46v1.15C73.4 8.76 74 8 76 8a2.91 2.91 0 013.08 2.14 6.23 6.23 0 01.17 1.43v6.51h-3.61"/></g></g><path fill="none" stroke="#000" stroke-miterlimit="10" opacity=".9" d="M0 0h100v24H0z"/></svg>