<svg id="Layer_1" data-name="Layer 1" xmlns="http://www.w3.org/2000/svg" viewBox="0 0 100 24"><defs><style>.cls-1{fill:#231f20;fill-rule:evenodd}</style></defs><path class="cls-1" d="M87.84 16A1.19 1.19 0 1089 17.23 1.19 1.19 0 0087.84 16zm0 2.24a1 1 0 110-2.09 1 1 0 010 2.09z"/><path class="cls-1" d="M88.45 16.92a.34.34 0 00-.15-.29.59.59 0 00-.32-.06h-.58v1.33h.16v-.62h.3l.38.62h.19l-.4-.62c.24 0 .42-.1.42-.36zm-.64.24h-.25v-.47h.38c.17 0 .35 0 .35.23s-.29.24-.48.24zM80.86 10.49l2.44-2.6a.85.85 0 00.21-.44c0-.19-.17-.27-.68-.27h-.62V5.54h6.65v1.64H88c-1 0-1.2.16-2.61 1.93l-3.85 4.16v2.53c0 .65.33.88 1.27.88h1.45v1.58H75v-1.58h1.4c.94 0 1.27-.23 1.27-.88v-2.53l-4.54-5c-.75-.88-.64-1.07-2.73-1.07V5.54h8.42v1.64h-.6c-.61 0-.87.12-.87.35s.19.34.3.49l2.3 2.5a.55.55 0 00.91 0zM24.38 5.54h2v4.58h-1.84a3 3 0 00-1.26-1.75 7.85 7.85 0 00-4.7-1.59c-2.22 0-4.09.69-4.09 1.7 0 2.8 12.67.57 12.67 5.87 0 2.77-2.71 4.31-7.59 4.31a14.29 14.29 0 01-5.74-1.32c-.47-.27-.67.26-.76.92H11v-4.73h1.88a3.75 3.75 0 001.51 1.93 8.41 8.41 0 005.08 1.43c3 0 4-.69 4-1.64s-1-1.18-4.31-1.7l-2.8-.45c-3.16-.48-5.45-1.19-5.45-3.7s2.9-4.26 7.5-4.26a9.85 9.85 0 015.11 1.14c.43.28.84.31.83-.74zM64 13.21V8.12c0-.67-.35-.9-1.34-.9h-1.11V5.64H69v1.58h-1c-1 0-1.34.23-1.34.9v10.24h-2.91l-9.4-8.91v6.45c0 .65.35.9 1.34.9H57v1.56h-7.7V16.8h1.28c1 0 1.33-.25 1.33-.9V8.12c0-.67-.34-.9-1.33-.9h-1.3V5.64h6.66L64 13.21zM39.17 5.05c-5.91 0-9.61 2.61-9.61 6.8s3.64 6.72 9.44 6.72c6.14 0 9.71-2.56 9.71-6.93 0-3.92-3.85-6.59-9.53-6.59zM39 16.91c-3.27 0-5.15-1.89-5.15-5.15s2-5.07 5.32-5.07c3.21 0 5.09 1.92 5.09 5.2s-1.9 5-5.26 5z"/><path fill="none" stroke="#000" stroke-miterlimit="10" opacity=".9" d="M0 0h100v24H0z"/></svg>